<?xml version="1.0" standalone="no"?>
<!DOCTYPE svg PUBLIC "-//W3C//DTD SVG 20010904//EN"
 "http://www.w3.org/TR/2001/REC-SVG-20010904/DTD/svg10.dtd">
<svg version="1.0" xmlns="http://www.w3.org/2000/svg"
 width="1024.000000pt" height="1024.000000pt" viewBox="0 0 1024.000000 1024.000000"
 preserveAspectRatio="xMidYMid meet">

<g transform="translate(0.000000,1024.000000) scale(0.100000,-0.100000)"
fill="#000000" stroke="none">
<path d="M7075 9292 c-193 -187 -399 -340 -936 -695 -464 -307 -651 -438 -819
-572 -240 -192 -379 -331 -535 -530 -293 -375 -461 -802 -519 -1315 -37 -323
-27 -844 20 -1083 l6 -27 -289 0 c-280 0 -289 -1 -327 -23 -25 -14 -48 -39
-63 -66 -22 -43 -23 -51 -23 -300 0 -228 2 -260 19 -297 27 -59 76 -93 155
-106 71 -12 79 -22 44 -55 -37 -33 -59 -41 -174 -62 -218 -39 -299 -61 -379
-100 -129 -64 -215 -145 -278 -261 -76 -140 -72 -67 -72 -1180 0 -938 1 -998
18 -1055 52 -167 164 -303 308 -373 156 -77 46 -72 1570 -72 1327 0 1368 1
1443 20 220 56 382 215 453 445 17 57 18 115 18 1035 0 918 -1 978 -18 1035
-45 146 -142 277 -265 358 -111 74 -161 91 -397 137 -188 36 -207 42 -242 84
-24 28 -24 31 -7 34 115 15 167 43 202 106 15 27 17 64 17 296 0 249 -1 267
-21 305 -11 22 -38 52 -60 68 l-39 28 -663 -1 c-414 0 -662 3 -662 9 0 16 138
119 237 178 115 67 198 105 433 198 422 167 614 262 845 423 320 222 576 516
769 883 62 118 130 269 123 275 -1 2 -61 -3 -132 -11 -193 -20 -235 -23 -235
-15 0 3 14 19 31 36 99 93 271 329 361 494 215 393 314 901 264 1350 -18 161
-84 482 -99 480 -1 0 -38 -35 -82 -78z m-108 -707 c-7 -261 -50 -468 -144
-705 -102 -259 -239 -468 -437 -665 -161 -161 -280 -246 -469 -335 -64 -30
-116 -58 -116 -62 -1 -12 122 -67 189 -85 96 -25 298 -22 414 6 49 12 91 20
93 17 6 -6 -105 -165 -173 -246 -231 -276 -511 -475 -929 -660 -116 -52 -658
-270 -670 -270 -6 0 119 299 188 450 187 405 382 720 648 1044 22 27 37 51 35
54 -9 8 -113 -59 -204 -133 -302 -242 -544 -547 -786 -990 l-76 -140 5 60 c3
33 13 116 21 185 86 699 371 1219 901 1647 177 143 301 230 863 606 305 204
575 385 600 403 38 28 46 30 49 16 2 -9 1 -98 -2 -197z m-1257 -3935 l0 -120
-32 0 c-60 0 -105 -19 -141 -60 -44 -48 -50 -79 -45 -217 3 -97 7 -114 33
-162 65 -119 167 -172 454 -235 112 -25 223 -55 246 -66 60 -29 134 -106 164
-170 l26 -55 3 -937 2 -936 -21 -58 c-27 -70 -94 -146 -164 -182 l-50 -27
-1375 0 -1375 0 -50 27 c-60 32 -124 97 -156 158 l-24 45 0 965 0 965 30 59
c32 64 94 124 158 155 23 11 119 36 213 56 275 56 347 86 430 177 65 73 79
117 79 254 0 115 -1 122 -28 163 -33 50 -92 80 -154 81 l-43 0 0 120 0 120
910 0 910 0 0 -120z"/>
<path d="M3787 3404 c-78 -19 -112 -38 -178 -101 -37 -35 -67 -75 -85 -116
l-29 -62 0 -560 0 -560 31 -60 c35 -66 119 -152 180 -183 83 -42 114 -43 1129
-40 l970 3 67 32 c90 42 160 110 201 192 l32 66 0 555 0 555 -27 58 c-31 66
-115 155 -176 186 -102 52 -85 51 -1107 50 -776 -1 -961 -3 -1008 -15z m1964
-299 c16 -9 39 -30 49 -48 19 -30 20 -53 20 -477 0 -498 0 -497 -70 -532 -33
-17 -99 -18 -950 -18 -867 0 -917 1 -949 18 -72 38 -71 34 -71 530 0 489 -1
484 63 522 31 19 57 20 955 20 814 0 927 -2 953 -15z"/>
</g>
</svg>
